<svg width="125" height="32" viewBox="0 0 125 32" fill="none" xmlns="http://www.w3.org/2000/svg"><path d="M85.2578 29.296V25.3605H86.7219C87.3812 25.3605 87.8899 25.5298 88.2475 25.8685C88.6087 26.2072 88.7895 26.6929 88.7895 27.3254C88.7895 27.9545 88.6087 28.44 88.2475 28.7823C87.8899 29.1247 87.3812 29.296 86.7219 29.296H85.2578ZM85.973 28.7044H86.6771C87.5862 28.7044 88.0408 28.2447 88.0408 27.3254C88.0408 26.4101 87.5862 25.9523 86.6771 25.9523H85.973V28.7044Z" fill="#939AA5"></path><path d="M90.7965 29.3516C90.4872 29.3516 90.2209 29.2937 89.9973 29.1785C89.7737 29.0631 89.6006 28.8994 89.4776 28.6872C89.3583 28.4752 89.2988 28.224 89.2988 27.9336C89.2988 27.6508 89.3566 27.4033 89.472 27.1913C89.5913 26.9791 89.7534 26.8134 89.9581 26.6943C90.1668 26.5715 90.4034 26.5103 90.6679 26.5103C91.0554 26.5103 91.3608 26.633 91.5844 26.8786C91.8116 27.1241 91.9253 27.4592 91.9253 27.8834V28.09H89.9694C90.0216 28.5774 90.301 28.8212 90.8077 28.8212C90.9603 28.8212 91.1132 28.7989 91.266 28.7543C91.4186 28.7058 91.5584 28.6313 91.685 28.5308L91.8805 28.9999C91.7502 29.1077 91.5863 29.1932 91.3889 29.2567C91.1913 29.3199 90.9939 29.3516 90.7965 29.3516ZM90.6958 26.9847C90.4911 26.9847 90.3253 27.0479 90.1986 27.1744C90.0718 27.3011 89.9956 27.4721 89.9694 27.688H91.3441C91.3292 27.4611 91.266 27.2879 91.1541 27.169C91.046 27.046 90.8932 26.9847 90.6958 26.9847Z" fill="#939AA5"></path><path d="M93.4792 29.3516C93.2483 29.3516 93.0323 29.3236 92.8309 29.2677C92.6299 29.2119 92.4621 29.132 92.3281 29.0278L92.5069 28.57C92.6448 28.6632 92.7993 28.7357 92.9708 28.7877C93.142 28.8362 93.3134 28.8602 93.4849 28.8602C93.6636 28.8602 93.7959 28.8305 93.8816 28.771C93.971 28.7078 94.0156 28.6259 94.0156 28.5254C94.0156 28.3691 93.9002 28.2686 93.6693 28.224L93.1104 28.1179C92.6372 28.0284 92.4006 27.7829 92.4006 27.381C92.4006 27.2023 92.4491 27.0479 92.5459 26.9178C92.6465 26.7874 92.7844 26.6869 92.9595 26.6164C93.1346 26.5455 93.3357 26.5103 93.563 26.5103C93.7567 26.5103 93.9431 26.5382 94.1219 26.5938C94.3007 26.646 94.4535 26.7259 94.5801 26.834L94.3901 27.2918C94.282 27.2023 94.1515 27.1317 93.9989 27.0795C93.8498 27.0276 93.7065 27.0014 93.5686 27.0014C93.3862 27.0014 93.25 27.033 93.1606 27.0962C93.0749 27.1597 93.0323 27.2432 93.0323 27.3474C93.0323 27.5114 93.1383 27.6118 93.3506 27.6488L93.9095 27.7549C94.1515 27.7995 94.3342 27.8816 94.4572 28.0005C94.5838 28.1196 94.6472 28.2796 94.6472 28.4806C94.6472 28.7524 94.5409 28.9663 94.3286 29.1227C94.1162 29.2753 93.8331 29.3516 93.4792 29.3516Z" fill="#939AA5"></path><path d="M95.1602 25.9807V25.2997H95.9424V25.9807H95.1602ZM95.205 29.2965V26.5669H95.9035V29.2965H95.205Z" fill="#939AA5"></path><path d="M97.9037 30.3563C97.6502 30.3563 97.4119 30.3264 97.1883 30.2669C96.9686 30.2112 96.7749 30.1238 96.6071 30.0047L96.8082 29.5189C96.9647 29.6231 97.1324 29.6995 97.3112 29.7478C97.49 29.8 97.6688 29.826 97.8476 29.826C98.347 29.826 98.5965 29.5858 98.5965 29.106V28.7318C98.5182 28.8845 98.3972 29.0055 98.2333 29.0947C98.0732 29.1839 97.8944 29.2288 97.6967 29.2288C97.4508 29.2288 97.2368 29.1729 97.0541 29.0612C96.8716 28.946 96.73 28.7859 96.6294 28.5811C96.529 28.3764 96.4785 28.1382 96.4785 27.8667C96.4785 27.5949 96.529 27.3587 96.6294 27.1577C96.73 26.9531 96.8716 26.7948 97.0541 26.6833C97.2368 26.5678 97.4508 26.5103 97.6967 26.5103C97.9017 26.5103 98.0842 26.5568 98.2443 26.6497C98.4045 26.7391 98.5221 26.86 98.5965 27.0126V26.5661H99.2781V29.0222C99.2781 29.465 99.1608 29.7981 98.9262 30.0213C98.6916 30.2446 98.3506 30.3563 97.9037 30.3563ZM97.8868 28.6985C98.1028 28.6985 98.2742 28.624 98.4009 28.4752C98.5275 28.3262 98.5909 28.1235 98.5909 27.8667C98.5909 27.6099 98.5275 27.4089 98.4009 27.2638C98.2742 27.1148 98.1028 27.0406 97.8868 27.0406C97.6708 27.0406 97.4993 27.1148 97.3727 27.2638C97.2461 27.4089 97.1826 27.6099 97.1826 27.8667C97.1826 28.1235 97.2461 28.3262 97.3727 28.4752C97.4993 28.624 97.6708 28.6985 97.8868 28.6985Z" fill="#939AA5"></path><path d="M100.003 29.2957V26.5661H100.685V26.9903C100.778 26.834 100.902 26.7149 101.059 26.633C101.219 26.5512 101.398 26.5103 101.595 26.5103C102.24 26.5103 102.562 26.8842 102.562 27.6322V29.2957H101.864V27.6657C101.864 27.4535 101.823 27.2991 101.741 27.2023C101.662 27.1055 101.54 27.0572 101.372 27.0572C101.167 27.0572 101.003 27.1224 100.88 27.2526C100.761 27.3793 100.701 27.5484 100.701 27.7606V29.2957H100.003Z" fill="#939AA5"></path><path d="M106.202 29.3527C105.893 29.3527 105.606 29.3135 105.341 29.2353C105.077 29.1535 104.853 29.0437 104.671 28.9062L104.889 28.3423C105.071 28.4724 105.271 28.5729 105.487 28.6437C105.707 28.7145 105.945 28.7498 106.202 28.7498C106.496 28.7498 106.711 28.7013 106.845 28.6047C106.979 28.5043 107.046 28.3759 107.046 28.2195C107.046 28.0891 106.997 27.9869 106.901 27.9124C106.808 27.8379 106.645 27.7767 106.414 27.7281L105.8 27.5997C105.099 27.451 104.749 27.092 104.749 26.5224C104.749 26.2769 104.814 26.0629 104.945 25.8806C105.075 25.6983 105.256 25.5569 105.487 25.4564C105.718 25.3559 105.984 25.3057 106.286 25.3057C106.554 25.3057 106.806 25.3466 107.04 25.4284C107.275 25.5066 107.471 25.6181 107.627 25.7632L107.409 26.2992C107.1 26.0387 106.724 25.9085 106.28 25.9085C106.023 25.9085 105.822 25.9624 105.677 26.0703C105.532 26.1783 105.459 26.3197 105.459 26.4945C105.459 26.6285 105.504 26.7364 105.593 26.8185C105.682 26.8964 105.835 26.9579 106.051 27.0025L106.66 27.1309C107.029 27.2091 107.303 27.3319 107.482 27.4993C107.664 27.6669 107.756 27.8901 107.756 28.1693C107.756 28.4038 107.692 28.6101 107.566 28.7888C107.439 28.9674 107.258 29.1071 107.024 29.2076C106.793 29.3042 106.519 29.3527 106.202 29.3527Z" fill="#939AA5"></path><path d="M108.502 30.3019L109.006 29.1854L107.871 26.5676H108.614L109.38 28.4767L110.162 26.5676H110.866L109.224 30.3019H108.502Z" fill="#939AA5"></path><path d="M112.147 29.3516C111.916 29.3516 111.7 29.3236 111.499 29.2677C111.298 29.2119 111.13 29.132 110.996 29.0278L111.175 28.57C111.313 28.6632 111.467 28.7357 111.638 28.7877C111.81 28.8362 111.981 28.8602 112.153 28.8602C112.332 28.8602 112.464 28.8305 112.55 28.771C112.639 28.7078 112.684 28.6259 112.684 28.5254C112.684 28.3691 112.568 28.2686 112.337 28.224L111.778 28.1179C111.305 28.0284 111.069 27.7829 111.069 27.381C111.069 27.2023 111.117 27.0479 111.214 26.9178C111.314 26.7874 111.452 26.6869 111.627 26.6164C111.803 26.5455 112.004 26.5103 112.231 26.5103C112.425 26.5103 112.611 26.5382 112.79 26.5938C112.969 26.646 113.121 26.7259 113.248 26.834L113.058 27.2918C112.95 27.2023 112.819 27.1317 112.667 27.0795C112.518 27.0276 112.374 27.0014 112.237 27.0014C112.054 27.0014 111.918 27.033 111.829 27.0962C111.743 27.1597 111.7 27.2432 111.7 27.3474C111.7 27.5114 111.806 27.6118 112.019 27.6488L112.578 27.7549C112.819 27.7995 113.002 27.8816 113.125 28.0005C113.252 28.1196 113.315 28.2796 113.315 28.4806C113.315 28.7524 113.209 28.9663 112.997 29.1227C112.784 29.2753 112.501 29.3516 112.147 29.3516Z" fill="#939AA5"></path><path d="M115.099 29.3543C114.376 29.3543 114.015 28.997 114.015 28.2824V27.0936H113.489V26.5689H114.015V25.7538H114.713V26.5689H115.54V27.0936H114.713V28.2434C114.713 28.4221 114.752 28.5561 114.83 28.6453C114.909 28.7345 115.035 28.7794 115.211 28.7794C115.262 28.7794 115.317 28.7737 115.372 28.7625C115.428 28.7478 115.486 28.7328 115.546 28.7179L115.652 29.2315C115.585 29.2688 115.499 29.2984 115.395 29.3207C115.294 29.343 115.196 29.3543 115.099 29.3543Z" fill="#939AA5"></path><path d="M117.312 29.3516C117.003 29.3516 116.736 29.2937 116.513 29.1785C116.289 29.0631 116.116 28.8994 115.993 28.6872C115.874 28.4752 115.814 28.224 115.814 27.9336C115.814 27.6508 115.872 27.4033 115.988 27.1913C116.107 26.9791 116.269 26.8134 116.474 26.6943C116.682 26.5715 116.919 26.5103 117.184 26.5103C117.571 26.5103 117.876 26.633 118.1 26.8786C118.327 27.1241 118.441 27.4592 118.441 27.8834V28.09H116.485C116.537 28.5774 116.816 28.8212 117.323 28.8212C117.476 28.8212 117.629 28.7989 117.781 28.7543C117.934 28.7058 118.074 28.6313 118.2 28.5308L118.396 28.9999C118.266 29.1077 118.102 29.1932 117.904 29.2567C117.707 29.3199 117.509 29.3516 117.312 29.3516ZM117.211 26.9847C117.006 26.9847 116.841 27.0479 116.714 27.1744C116.587 27.3011 116.511 27.4721 116.485 27.688H117.86C117.845 27.4611 117.781 27.2879 117.67 27.169C117.562 27.046 117.409 26.9847 117.211 26.9847Z" fill="#939AA5"></path><path d="M119.004 29.2957V26.5661H119.686V26.9847C119.768 26.8357 119.881 26.7205 120.026 26.6387C120.172 26.5529 120.339 26.5103 120.529 26.5103C120.939 26.5103 121.207 26.6889 121.334 27.046C121.42 26.8786 121.543 26.7485 121.703 26.6553C121.863 26.5585 122.046 26.5103 122.25 26.5103C122.865 26.5103 123.173 26.8842 123.173 27.6322V29.2957H122.474V27.6601C122.474 27.4518 122.439 27.2991 122.368 27.2023C122.301 27.1055 122.185 27.0572 122.021 27.0572C121.839 27.0572 121.696 27.1224 121.591 27.2526C121.487 27.3793 121.435 27.556 121.435 27.7829V29.2957H120.736V27.6601C120.736 27.4518 120.701 27.2991 120.63 27.2023C120.563 27.1055 120.449 27.0572 120.289 27.0572C120.107 27.0572 119.963 27.1224 119.859 27.2526C119.755 27.3793 119.702 27.556 119.702 27.7829V29.2957H119.004Z" fill="#939AA5"></path><path d="M46.5463 3.7008V19.1898H52.7348V23.5625H41.3848V3.7008H46.5463ZM63.248 14.8434C63.09 14.1761 62.7652 13.6405 62.2737 13.2366C61.7822 12.8327 61.1851 12.6307 60.4829 12.6307C59.7454 12.6307 59.1398 12.8238 58.6659 13.2102C58.2094 13.5966 57.9196 14.1409 57.7969 14.8434H63.248ZM57.6652 17.6093C57.6652 19.664 58.6308 20.6913 60.562 20.6913C61.5977 20.6913 62.379 20.2698 62.9056 19.4269H67.5141C66.5837 22.5177 64.2575 24.063 60.5355 24.063C59.3945 24.063 58.3499 23.8962 57.4019 23.5625C56.4538 23.2113 55.6375 22.7196 54.9527 22.0874C54.2856 21.4552 53.7678 20.7001 53.399 19.822C53.0304 18.9439 52.846 17.9605 52.846 16.8717C52.846 15.7478 53.0216 14.738 53.3728 13.8424C53.7238 12.9292 54.2241 12.1565 54.8739 11.5243C55.5234 10.8921 56.3047 10.4092 57.2175 10.0755C58.1479 9.72431 59.1924 9.54867 60.3514 9.54867C61.4924 9.54867 62.5193 9.72431 63.4324 10.0755C64.3452 10.4092 65.1176 10.9009 65.7498 11.5507C66.3816 12.2004 66.8646 12.9995 67.1982 13.9478C67.5317 14.8785 67.6983 15.9322 67.6983 17.1088V17.6093H57.6652ZM73.2669 16.74C73.2669 17.1791 73.346 17.5917 73.504 17.9781C73.6619 18.3469 73.8728 18.6718 74.1361 18.9527C74.417 19.2337 74.7418 19.4532 75.1104 19.6113C75.4966 19.7693 75.9093 19.8483 76.3481 19.8483C76.7694 19.8483 77.1644 19.7693 77.533 19.6113C77.9193 19.4532 78.244 19.2337 78.5073 18.9527C78.7882 18.6718 79.0079 18.3469 79.1656 17.9781C79.3412 17.5917 79.4294 17.1878 79.4294 16.7664C79.4294 16.3273 79.3412 15.9234 79.1656 15.5547C79.0079 15.1859 78.7882 14.8609 78.5073 14.58C78.2266 14.299 77.8931 14.0795 77.5068 13.9214C77.1382 13.7634 76.7518 13.6844 76.3481 13.6844C75.9267 13.6844 75.5319 13.7721 75.163 13.9478C74.7944 14.1059 74.4697 14.3254 74.1887 14.6063C73.9078 14.8697 73.6796 15.1859 73.504 15.5547C73.346 15.9234 73.2669 16.3186 73.2669 16.74ZM83.9586 10.0492V22.6406C83.9586 23.3957 83.9145 24.0718 83.8268 24.6689C83.7394 25.2661 83.6162 25.7927 83.4585 26.2493C83.2476 26.8289 82.9143 27.3646 82.4578 27.8562C82.0186 28.3655 81.4832 28.8046 80.8511 29.1734C80.2192 29.5423 79.4995 29.8319 78.692 30.0427C77.9019 30.2534 77.0415 30.3588 76.1111 30.3588C75.0577 30.3588 74.0923 30.227 73.2142 29.9635C72.3365 29.7003 71.564 29.3315 70.8969 28.8573C70.2474 28.4007 69.712 27.8562 69.2907 27.2242C68.8692 26.6093 68.5883 25.9334 68.448 25.1958H73.8202C74.1537 26.0915 74.9085 26.5392 76.0849 26.5392C77.0853 26.5392 77.8492 26.2581 78.3758 25.6962C78.92 25.1343 79.1921 24.3528 79.1921 23.3518V22.0611C78.8411 22.3947 78.4987 22.6757 78.1654 22.904C77.8492 23.1147 77.5242 23.2904 77.1909 23.4308C76.8573 23.5713 76.5061 23.6679 76.1375 23.7206C75.7687 23.7909 75.3651 23.826 74.9259 23.826C73.9605 23.826 73.0739 23.6592 72.2664 23.3255C71.4587 22.9918 70.7565 22.5264 70.1597 21.9293C69.5802 21.3323 69.1239 20.621 68.7904 19.7957C68.4742 18.9527 68.3162 18.022 68.3162 17.0034C68.3162 15.9673 68.4918 15.0102 68.843 14.1322C69.194 13.2366 69.6681 12.4639 70.265 11.8141C70.8795 11.1468 71.5993 10.6287 72.4244 10.2599C73.2669 9.87358 74.1799 9.68039 75.163 9.68039C76.7606 9.68039 78.1037 10.2775 79.1921 11.4717V10.0492H83.9586ZM90.391 10.0492V23.5625H85.6245V10.0492H90.391ZM85.3086 4.85984C85.3086 4.49106 85.3788 4.14861 85.5194 3.83252C85.6598 3.49884 85.853 3.20909 86.0987 2.96322C86.3445 2.71737 86.6252 2.52421 86.9414 2.38371C87.2747 2.24322 87.6262 2.17297 87.9945 2.17297C88.3636 2.17297 88.7058 2.24322 89.0217 2.38371C89.355 2.52421 89.6448 2.71737 89.8909 2.96322C90.1365 3.20909 90.3295 3.49884 90.4699 3.83252C90.6105 4.14861 90.6807 4.49106 90.6807 4.85984C90.6807 5.22864 90.6105 5.57984 90.4699 5.9135C90.3295 6.22964 90.1365 6.51058 89.8909 6.75646C89.6448 7.00231 89.355 7.19547 89.0217 7.33596C88.7058 7.47646 88.3636 7.5467 87.9945 7.5467C87.6262 7.5467 87.2747 7.47646 86.9414 7.33596C86.6252 7.19547 86.3445 7.00231 86.0987 6.75646C85.853 6.51058 85.6598 6.22964 85.5194 5.9135C85.3788 5.57984 85.3086 5.22864 85.3086 4.85984ZM96.5714 16.74C96.5714 17.1966 96.6505 17.6181 96.8082 18.0044C96.9838 18.3732 97.2035 18.6981 97.4668 18.9791C97.7477 19.2601 98.0722 19.4796 98.4411 19.6376C98.8273 19.7957 99.2312 19.8747 99.6524 19.8747C100.074 19.8747 100.469 19.7957 100.837 19.6376C101.224 19.4796 101.548 19.2601 101.812 18.9791C102.092 18.6981 102.312 18.3732 102.47 18.0044C102.646 17.6181 102.733 17.2054 102.733 16.7664C102.733 16.3449 102.646 15.9498 102.47 15.581C102.312 15.1946 102.092 14.8609 101.812 14.58C101.548 14.299 101.224 14.0795 100.837 13.9214C100.469 13.7634 100.074 13.6844 99.6524 13.6844C99.2312 13.6844 98.8273 13.7634 98.4411 13.9214C98.0722 14.0795 97.7477 14.299 97.4668 14.58C97.2035 14.8609 96.9838 15.1859 96.8082 15.5547C96.6505 15.9234 96.5714 16.3186 96.5714 16.74ZM91.5414 16.6873C91.5414 15.6863 91.7434 14.7556 92.1473 13.8951C92.5511 13.017 93.1127 12.2619 93.8328 11.6297C94.5526 10.9799 95.4037 10.4706 96.3867 10.1019C97.3877 9.73308 98.4761 9.54867 99.6524 9.54867C100.811 9.54867 101.882 9.73308 102.865 10.1019C103.866 10.4531 104.726 10.9536 105.446 11.6034C106.183 12.2356 106.754 12.9995 107.158 13.8951C107.561 14.7732 107.763 15.7478 107.763 16.8191C107.763 17.8903 107.553 18.8737 107.131 19.7693C106.727 20.6474 106.166 21.4113 105.446 22.0611C104.726 22.6933 103.857 23.185 102.839 23.5362C101.838 23.8875 100.75 24.063 99.5736 24.063C98.4149 24.063 97.3439 23.8875 96.3608 23.5362C95.3777 23.185 94.5261 22.6845 93.8063 22.0348C93.1039 21.385 92.5511 20.6123 92.1473 19.7166C91.7434 18.8035 91.5414 17.7937 91.5414 16.6873ZM108.927 10.0492H113.694V11.7614C114.343 10.9711 115.001 10.4443 115.669 10.1809C116.336 9.8999 117.117 9.7594 118.012 9.7594C118.96 9.7594 119.768 9.91747 120.435 10.2336C121.12 10.5321 121.699 10.9624 122.173 11.5243C122.559 11.9809 122.823 12.4902 122.963 13.0522C123.104 13.6141 123.174 14.2551 123.174 14.9751V23.5625H118.407V16.74C118.407 16.0727 118.355 15.5371 118.249 15.1332C118.162 14.7117 117.994 14.378 117.749 14.1322C117.538 13.9214 117.301 13.7721 117.038 13.6844C116.775 13.5966 116.494 13.5526 116.195 13.5526C115.388 13.5526 114.765 13.7985 114.326 14.2902C113.904 14.7644 113.694 15.4493 113.694 16.3449V23.5625H108.927V10.0492Z" fill="#2E343B"></path><path d="M7.90095 2.23975L7.90152 2.24085L10.5207 5.91106L12.0408 9.41185L3.7627 9.41312L3.91826 9.14375L6.73156 4.2671L7.90095 2.23975Z" fill="#BE383A"></path><path d="M3.76327 9.40933L12.042 9.40808V9.40918L8.06094 16.311L8.05984 16.3127H8.05874L8.05928 16.3138L7.90425 16.5825L4.07715 23.2172L3.92268 23.4855L3.76756 23.2173L0.188309 17.0164C-0.0626323 16.5817 -0.0627793 16.046 0.187927 15.6112L3.76327 9.40933Z" fill="#F6494B"></path><path d="M8.00876 30.3975L9.95548 30.3972L6.98828 31.7914L7.90468 30.5776L8.00876 30.3975Z" fill="#320D66"></path><path d="M12.0539 23.2229L14.5311 27.5243L16.0406 30.1386L16.1919 30.4013L8.01895 30.4026L7.45215 26.5273L12.0539 23.2229Z" fill="#274FC5"></path><path d="M14.22 0.208496C14.5211 0.208451 14.7993 0.369167 14.9499 0.630099L15.876 2.23488L19.3611 8.27213L20.0187 9.41142H20.017L20.0153 9.40865L12.0468 9.40987L12.0451 9.41264H12.044L7.90468 2.24163V2.23885L7.90635 2.23609L7.90468 2.23553L7.89971 2.23276L7.21873 1.05286C7.00242 0.678083 7.27268 0.209547 7.70518 0.209482L14.22 0.208496Z" fill="#721FE5"></path><path d="M7.18397 1.05524C6.96524 0.680476 7.23533 0.209552 7.66907 0.209486L14.2111 0.208496C14.5118 0.208451 14.7897 0.368695 14.9404 0.629015L17.2198 4.56519L9.23346 4.56639L7.18397 1.05524Z" fill="#5818B1"></path><path d="M28.1382 9.14417L28.2932 9.41237L31.2549 14.5436L32.277 16.314L32.2757 16.3157L24.001 16.317L26.4764 12.0256L27.9836 9.41239L28.1382 9.14417Z" fill="#C38435"></path><path d="M15.8721 2.23477L23.3387 2.23364C23.8405 2.23357 24.3044 2.50139 24.5552 2.93621L28.1373 9.14186L27.9828 9.41011L26.4756 12.0233L24 16.3147H23.9989L20.0635 9.4961L20.0147 9.41131L19.3571 8.27202L16.0266 2.50242L15.8721 2.23477Z" fill="#FDAB45"></path><path d="M20.0081 23.2212L20.0125 23.2284L20.0164 23.2212L24.9879 20.825L28.2911 23.22L28.1368 23.4871L24.5584 29.6917C24.3074 30.1265 23.8438 30.3946 23.342 30.3946L16.1811 30.3955L16.0298 30.1331L14.5208 27.5187L12.0938 23.3138L12.043 23.2224L20.0081 23.2212Z" fill="#3366FF"></path><path d="M8.05758 16.3184L12.0418 23.2206L8.00877 30.3951L7.90468 30.5753L7.36989 31.5024C7.15662 31.8722 6.6255 31.8785 6.40348 31.5139L3.01177 25.9447C2.85138 25.6813 2.84746 25.3512 3.00156 25.0841L3.92099 23.4906L4.07546 23.2218L7.90255 16.5871L8.05758 16.3184Z" fill="#721FE5"></path><path d="M9.55268 27.7045L7.36469 31.494C7.15132 31.8636 6.62037 31.8699 6.39841 31.5055L3.00591 25.9349C2.84579 25.672 2.8416 25.3426 2.99497 25.0757L5.50624 20.705L9.55268 27.7045Z" fill="#5818B1"></path><path d="M7.09123 0.801919C7.09265 0.788173 7.11097 0.784529 7.11756 0.796682L7.89543 2.23437L7.89986 2.24157V2.24213L6.73047 4.2695L7.09123 0.801919Z" fill="#320D66"></path><path d="M32.3138 16.3853L32.3559 16.3836L32.398 16.3853L33.9013 16.4371C33.9297 16.4381 33.9415 16.4015 33.918 16.3857L31.2881 14.6145L32.3138 16.3853Z" fill="#320D66"></path><path d="M32.2657 16.3298L32.275 16.3126L31.858 16.3126L24.0003 16.3138L23.9997 16.3149L20.0176 23.2184L29.9829 23.2169C30.3846 23.2168 30.7554 23.0024 30.9562 22.6545L34.1276 17.1556C34.3438 16.7807 34.0734 16.3123 33.6409 16.3124L32.2922 16.3126L32.2657 16.3298Z" fill="#721FE5"></path><path d="M29.1583 16.313L25.1758 23.2176L30.1475 23.2169C30.4485 23.2168 30.7267 23.056 30.8774 22.7951L34.1298 17.1556C34.3461 16.7807 34.0757 16.3123 33.6432 16.3124L29.1583 16.313Z" fill="#5818B1"></path></svg>